<svg width="14" height="18" viewBox="0 0 14 18" fill="none" xmlns="http://www.w3.org/2000/svg">
<path d="M6.922 9.6C9.573 9.6 11.722 7.451 11.722 4.8C11.722 2.149 9.573 0 6.922 0C4.271 0 2.122 2.149 2.122 4.8C2.122 7.451 4.271 9.6 6.922 9.6ZM6.922 1.2C8.907 1.2 10.522 2.815 10.522 4.8C10.522 6.785 8.907 8.4 6.922 8.4C4.937 8.4 3.322 6.785 3.322 4.8C3.322 2.815 4.937 1.2 6.922 1.2ZM6.922 10.8C2.136 10.8 0.538 14.503 0 16.992C0.347 17.237 0.703 17.467 1.076 17.676C1.442 15.558 2.687 12 6.922 12C11.158 12 12.401 15.558 12.768 17.675C13.14 17.467 13.498 17.237 13.843 16.992C13.306 14.503 11.707 10.8 6.922 10.8Z" fill="black"/>
</svg>
