<svg width="120" height="41" viewBox="0 0 120 41" fill="none" xmlns="http://www.w3.org/2000/svg">
<g clip-path="url(#clip0_1817_602)">
<path d="M116 1H4C3.07174 1 2.1815 1.36875 1.52513 2.02513C0.868749 2.6815 0.5 3.57174 0.5 4.5V36.5C0.5 37.4283 0.868749 38.3185 1.52513 38.9749C2.1815 39.6312 3.07174 40 4 40H116C116.928 40 117.818 39.6312 118.475 38.9749C119.131 38.3185 119.5 37.4283 119.5 36.5V4.5C119.5 3.57174 119.131 2.6815 118.475 2.02513C117.818 1.36875 116.928 1 116 1Z" stroke="#8D95A3"/>
<path d="M44.731 25.524H40.59L39.576 28.302H37.756L41.812 17.928H43.532L47.682 28.302H45.767L44.731 25.524ZM41.111 24.114H44.204L43.096 21.144C42.9326 20.6949 42.7825 20.241 42.646 19.783C42.509 20.234 42.364 20.683 42.211 21.129L41.111 24.114ZM48.503 22.468C48.503 21.896 48.483 21.266 48.445 20.578H50.101C50.163 20.898 50.205 21.226 50.231 21.56C50.915 20.81 51.701 20.435 52.587 20.435C53.101 20.435 53.577 20.565 54.014 20.825C54.452 21.085 54.806 21.496 55.075 22.056C55.345 22.618 55.479 23.33 55.479 24.193C55.479 25.095 55.325 25.866 55.018 26.507C54.712 27.147 54.281 27.631 53.729 27.96C53.178 28.29 52.539 28.454 51.815 28.454C51.2871 28.453 50.7632 28.3634 50.265 28.189V31.382L48.501 31.532V22.468H48.503ZM53.141 26.417C53.501 25.933 53.681 25.225 53.681 24.293C53.681 23.43 53.531 22.803 53.234 22.413C53.0979 22.2267 52.9186 22.0763 52.7114 21.9748C52.5043 21.8732 52.2756 21.8235 52.045 21.83C51.703 21.83 51.385 21.911 51.095 22.073C50.7882 22.248 50.5091 22.4678 50.267 22.725V26.863C50.442 26.948 50.647 27.016 50.88 27.067C51.113 27.117 51.345 27.141 51.574 27.141C52.26 27.143 52.782 26.901 53.141 26.417ZM56.61 22.468C56.61 21.896 56.59 21.266 56.552 20.578H58.208C58.27 20.898 58.312 21.226 58.337 21.56C59.022 20.81 59.807 20.435 60.693 20.435C61.207 20.435 61.684 20.565 62.121 20.825C62.559 21.085 62.912 21.496 63.181 22.056C63.451 22.618 63.586 23.33 63.586 24.193C63.586 25.095 63.432 25.866 63.124 26.507C62.818 27.147 62.388 27.631 61.836 27.96C61.284 28.29 60.646 28.454 59.922 28.454C59.3941 28.453 58.8702 28.3634 58.372 28.189V31.382L56.608 31.532V22.468H56.61ZM61.248 26.417C61.608 25.933 61.787 25.225 61.787 24.293C61.787 23.43 61.638 22.803 61.34 22.413C61.2041 22.2268 61.0249 22.0765 60.8179 21.9749C60.611 21.8733 60.3824 21.8236 60.152 21.83C59.809 21.83 59.492 21.911 59.202 22.073C58.911 22.235 58.635 22.453 58.374 22.725V26.863C58.549 26.948 58.754 27.016 58.987 27.067C59.22 27.117 59.451 27.141 59.68 27.141C60.367 27.143 60.889 26.901 61.248 26.417ZM66.914 27.812C66.1589 27.3974 65.5463 26.7649 65.156 25.997C64.746 25.209 64.543 24.279 64.543 23.206C64.543 22.041 64.779 21.052 65.249 20.238C65.6946 19.4497 66.3652 18.8122 67.175 18.407C67.986 17.998 68.897 17.794 69.906 17.794C71.0192 17.7915 72.1182 18.0436 73.119 18.531L72.669 19.892C71.731 19.444 70.835 19.22 69.983 19.22C69.265 19.22 68.634 19.373 68.094 19.681C67.554 19.989 67.134 20.441 66.834 21.038C66.534 21.634 66.384 22.355 66.384 23.2C66.384 23.94 66.498 24.596 66.73 25.169C66.9464 25.7233 67.3275 26.198 67.822 26.529C68.319 26.864 68.946 27.03 69.704 27.03C70.046 27.03 70.39 27.002 70.733 26.944C71.075 26.887 71.396 26.804 71.697 26.694V24.596H69.305V23.22H73.412V27.588C72.222 28.1449 70.9258 28.4379 69.612 28.447C68.576 28.444 67.676 28.234 66.914 27.812ZM79.768 28.303C79.7017 27.9653 79.6616 27.6229 79.648 27.279C79.377 27.604 79.023 27.879 78.587 28.106C78.151 28.333 77.66 28.446 77.112 28.446C76.6935 28.452 76.2792 28.3631 75.9 28.186C75.5394 28.0143 75.2378 27.7398 75.033 27.397C74.818 27.047 74.711 26.617 74.711 26.113C74.711 25.363 74.981 24.766 75.519 24.319C76.056 23.873 76.953 23.649 78.21 23.649C78.682 23.649 79.148 23.683 79.61 23.749V23.599C79.61 22.916 79.465 22.435 79.173 22.156C78.883 21.878 78.467 21.736 77.924 21.736C77.548 21.736 77.145 21.792 76.717 21.901C76.3293 21.9965 75.9515 22.1287 75.589 22.296L75.311 21.006C75.625 20.863 76.039 20.732 76.554 20.613C77.088 20.4913 77.6343 20.4312 78.182 20.434C78.849 20.434 79.415 20.535 79.882 20.738C80.348 20.941 80.712 21.29 80.974 21.783C81.236 22.277 81.367 22.943 81.367 23.777V26.849C81.367 27.168 81.385 27.653 81.424 28.302L79.768 28.303ZM78.712 26.871C79.0528 26.7138 79.3588 26.4901 79.612 26.213V24.78C79.2203 24.7333 78.8264 24.707 78.432 24.701C77.704 24.701 77.2 24.82 76.922 25.056C76.644 25.292 76.504 25.61 76.504 26.011C76.504 26.393 76.604 26.677 76.807 26.86C77.009 27.044 77.284 27.136 77.632 27.136C78.0074 27.1305 78.3767 27.0399 78.712 26.871ZM82.911 26.449V17.322L84.667 17.178V26.134C84.667 26.463 84.723 26.695 84.835 26.832C84.948 26.968 85.125 27.036 85.367 27.036C85.477 27.036 85.631 27.009 85.832 26.956L86.039 28.225C85.872 28.292 85.669 28.345 85.429 28.385C85.189 28.425 84.961 28.445 84.747 28.445C83.523 28.445 82.911 27.78 82.911 26.449ZM87.304 26.449V17.322L89.06 17.178V26.134C89.06 26.463 89.116 26.695 89.228 26.832C89.34 26.968 89.518 27.036 89.76 27.036C89.87 27.036 90.024 27.009 90.225 26.956L90.432 28.225C90.2351 28.3003 90.0305 28.354 89.822 28.385C89.582 28.425 89.354 28.445 89.14 28.445C87.915 28.445 87.304 27.78 87.304 26.449ZM97.744 24.666H92.703C92.784 26.284 93.553 27.093 95.01 27.093C95.3838 27.0918 95.7563 27.0475 96.12 26.961C96.4928 26.8745 96.8575 26.7561 97.21 26.607L97.596 27.817C96.734 28.236 95.766 28.447 94.689 28.447C93.871 28.447 93.18 28.292 92.617 27.981C92.064 27.679 91.6206 27.21 91.35 26.641C91.067 26.059 90.925 25.359 90.925 24.537C90.925 23.683 91.075 22.948 91.375 22.332C91.675 21.716 92.093 21.246 92.629 20.922C93.163 20.597 93.782 20.435 94.481 20.435C95.21 20.435 95.819 20.605 96.306 20.948C96.793 21.289 97.155 21.744 97.391 22.311C97.626 22.879 97.744 23.507 97.744 24.194V24.666ZM96.022 23.542C95.99 22.926 95.834 22.464 95.558 22.156C95.281 21.848 94.912 21.695 94.45 21.695C94.003 21.695 93.63 21.849 93.333 22.16C93.036 22.471 92.842 22.931 92.751 23.542H96.022ZM99.165 22.518C99.1584 21.871 99.139 21.2242 99.107 20.578H100.757C100.819 21.075 100.864 21.574 100.893 22.074C101.098 21.734 101.298 21.45 101.496 21.218C101.691 20.9886 101.926 20.7968 102.19 20.652C102.467 20.5031 102.778 20.428 103.092 20.434C103.363 20.434 103.597 20.462 103.792 20.52L103.571 22.052C103.385 21.9978 103.192 21.9711 102.999 21.973C102.585 21.973 102.223 22.08 101.914 22.291C101.604 22.504 101.274 22.853 100.922 23.34V28.3H99.165V22.518ZM104.85 31.463C104.635 31.4276 104.423 31.3765 104.215 31.31L104.536 30.021C104.655 30.055 104.805 30.086 104.987 30.118C105.168 30.149 105.339 30.165 105.5 30.165C106.281 30.165 106.866 29.661 107.257 28.654L107.371 28.368L104.529 20.578H106.421L107.85 24.932C108.083 25.677 108.233 26.248 108.3 26.643C108.434 26.084 108.591 25.526 108.772 24.967L110.222 20.579H112L109.165 28.403C108.898 29.143 108.61 29.74 108.3 30.193C107.99 30.646 107.625 30.983 107.204 31.202C106.782 31.422 106.274 31.531 105.68 31.531C105.384 31.531 105.109 31.509 104.85 31.464V31.463Z" fill="#212529"/>
<path fill-rule="evenodd" clip-rule="evenodd" d="M24.656 7.795H14.696C10.003 7.795 8.28601 9.515 8.28601 14.219V24.205C8.28601 28.908 10.003 30.629 14.696 30.629H24.653C29.345 30.629 31.064 28.909 31.064 24.205V14.219C31.064 9.516 29.348 7.795 24.656 7.795Z" fill="#C8102E"/>
<path d="M12.796 19.214H13.4V22.2H12.796V20.987H11.432V22.2H10.827V19.214H11.432V20.419H12.796V19.214ZM16.201 20.924C16.201 21.409 15.961 21.668 15.525 21.668C15.085 21.668 14.844 21.401 14.844 20.903V19.216H14.239V20.922C14.239 21.762 14.705 22.243 15.516 22.243C16.336 22.243 16.806 21.753 16.806 20.897V19.213H16.203V20.923H16.2L16.201 20.924ZM23.184 21.267L22.507 19.214H22.015L21.338 21.267L20.68 19.217H20.037L21.076 22.2H21.576L22.253 20.24L22.93 22.2H23.433L24.469 19.216H23.843L23.184 21.267ZM25.553 20.915H26.652V20.372H25.552V19.762H27.148V19.217H24.958V22.198H27.206V21.654H25.553V20.915ZM27.926 22.195H28.523V19.215H27.926V22.195ZM17.999 21.576L17.729 22.198H17.111L18.423 19.214H18.956L20.263 22.198H19.63L19.362 21.576H17.999ZM18.224 21.039H19.137L18.68 19.971L18.224 21.039ZM19.675 15.414C18.6684 15.4116 17.7039 15.0099 16.9931 14.2971C16.2824 13.5843 15.8835 12.6186 15.884 11.612H16.42C16.42 13.412 17.881 14.876 19.676 14.876C20.5402 14.8736 21.3682 14.5287 21.9786 13.9169C22.5889 13.305 22.9318 12.4762 22.932 11.612H23.469C23.4688 12.6189 23.0692 13.5846 22.358 14.2973C21.6468 15.01 20.6819 15.4116 19.675 15.414Z" fill="white"/>
<path d="M38.729 13.989C38.3598 13.78 38.0616 13.4651 37.8731 13.085C37.6761 12.697 37.576 12.247 37.576 11.733C37.576 11.194 37.682 10.722 37.892 10.318C38.0947 9.92185 38.4118 9.59575 38.802 9.38201C39.197 9.16201 39.665 9.05201 40.202 9.05201C40.717 9.05201 41.1601 9.15801 41.5321 9.37101C41.9031 9.58501 42.186 9.88401 42.3811 10.27C42.5761 10.657 42.6721 11.104 42.6721 11.612C42.6721 12.161 42.566 12.638 42.354 13.043C42.1509 13.4388 41.834 13.7648 41.444 13.979C41.051 14.199 40.588 14.308 40.058 14.308C39.545 14.311 39.1021 14.204 38.7281 13.988L38.729 13.989ZM41.0121 13.362C41.2591 13.196 41.443 12.968 41.565 12.677C41.687 12.386 41.7491 12.054 41.7491 11.68C41.7491 11.312 41.694 10.985 41.586 10.698C41.486 10.422 41.3061 10.182 41.0681 10.011C40.8311 9.841 40.525 9.75501 40.1521 9.75501C39.7951 9.75501 39.4921 9.84201 39.2421 10.015C38.9921 10.189 38.798 10.431 38.682 10.712C38.5556 11.0168 38.4924 11.3441 38.496 11.674C38.496 12.044 38.5551 12.374 38.6721 12.667C38.7901 12.96 38.9701 13.191 39.2121 13.36C39.4521 13.53 39.7531 13.614 40.1101 13.614C40.4651 13.611 40.7671 13.528 41.0121 13.362ZM44.46 9.86201H42.876L42.953 9.12301H46.925L46.8441 9.86201H45.3391V14.239H44.458V9.86201H44.46ZM51.67 14.24H50.677L49.1581 11.986H48.556V14.24H47.675V9.12301H48.556V11.236H49.0181L50.0751 9.70301C50.2291 9.47501 50.385 9.30901 50.542 9.20601C50.698 9.10301 50.896 9.05301 51.132 9.05301C51.331 9.05301 51.506 9.08501 51.662 9.15101L51.4781 9.841C51.3911 9.80343 51.2977 9.78305 51.203 9.78101C51.1082 9.778 51.0148 9.80494 50.9361 9.85801C50.8452 9.92713 50.7674 10.0118 50.7061 10.108L49.773 11.45L51.67 14.24ZM52.3441 9.12301H53.718C54.364 9.12301 54.859 9.255 55.202 9.518C55.544 9.783 55.717 10.164 55.717 10.664C55.717 11.003 55.639 11.3 55.487 11.553C55.3339 11.8054 55.1104 12.0077 54.8441 12.135C54.5478 12.2754 54.2228 12.3449 53.8951 12.338C53.6701 12.3349 53.4458 12.3115 53.225 12.268V14.239H52.3451L52.3441 9.12301ZM54.5541 11.408C54.7411 11.238 54.835 10.996 54.835 10.685C54.835 10.37 54.74 10.142 54.548 10.002C54.357 9.86301 54.075 9.794 53.704 9.794H53.224V11.611C53.444 11.646 53.614 11.664 53.732 11.664C54.092 11.664 54.3661 11.578 54.5541 11.408ZM57.412 13.989C57.0428 13.78 56.7446 13.4651 56.556 13.085C56.359 12.697 56.26 12.247 56.26 11.733C56.26 11.194 56.365 10.722 56.576 10.318C56.786 9.91401 57.0891 9.60201 57.486 9.38201C57.8811 9.16201 58.3481 9.05201 58.8861 9.05201C59.4011 9.05201 59.8431 9.15801 60.215 9.37101C60.587 9.58501 60.869 9.88401 61.065 10.27C61.259 10.657 61.356 11.104 61.356 11.612C61.356 12.161 61.249 12.638 61.037 13.043C60.8339 13.4388 60.517 13.7648 60.127 13.979C59.735 14.199 59.2721 14.308 58.7411 14.308C58.2291 14.311 57.785 14.204 57.412 13.988V13.989ZM59.696 13.362C59.943 13.196 60.1261 12.968 60.2491 12.677C60.371 12.386 60.432 12.054 60.432 11.68C60.432 11.312 60.378 10.985 60.2701 10.698C60.17 10.422 59.99 10.182 59.752 10.011C59.515 9.841 59.209 9.75501 58.835 9.75501C58.479 9.75501 58.175 9.84201 57.925 10.015C57.6752 10.1886 57.4808 10.4306 57.3651 10.712C57.2381 11.017 57.1751 11.344 57.1791 11.674C57.1791 12.044 57.239 12.374 57.356 12.667C57.474 12.96 57.6541 13.191 57.8951 13.36C58.136 13.53 58.437 13.614 58.793 13.614C59.148 13.611 59.449 13.528 59.696 13.362ZM65.8431 14.24V11.428C65.8431 11.075 65.8561 10.669 65.8831 10.212L63.319 14.24H62.3391V9.12301H63.1581V12.046C63.1581 12.363 63.147 12.711 63.126 13.088L65.6491 9.12301H66.6611V14.239L65.8431 14.24ZM63.854 8.68001C63.6813 8.59214 63.5348 8.4604 63.4291 8.29801C63.3331 8.1454 63.27 7.97441 63.244 7.79601H63.878C63.947 8.17301 64.1681 8.36201 64.5401 8.36201C64.9141 8.36201 65.135 8.17301 65.2071 7.79601H65.8461C65.8201 7.97501 65.7571 8.14601 65.6601 8.29801C65.5546 8.461 65.4075 8.59288 65.2341 8.68001C65.0188 8.78453 64.7812 8.83499 64.542 8.827C64.269 8.827 64.041 8.77801 63.854 8.68001ZM68.99 9.86201H67.406L67.4841 9.12301H71.4561L71.3741 9.86201H69.8701V14.239H68.988V9.86201H68.99ZM72.2041 9.12301H75.21L75.126 9.85101H73.085V11.261H75.0091V11.943H73.085V13.505H75.2351L75.1611 14.239H72.2041V9.12301ZM81.38 11.712C81.562 11.825 81.705 11.971 81.81 12.154C81.913 12.337 81.9661 12.551 81.9661 12.795C81.9661 13.081 81.895 13.332 81.753 13.55C81.611 13.768 81.403 13.936 81.13 14.059C80.856 14.181 80.528 14.24 80.145 14.24H78.4801V9.12301H80.073C80.613 9.12301 81.0191 9.22701 81.2891 9.43701C81.5591 9.64701 81.694 9.93401 81.694 10.299C81.694 10.603 81.607 10.857 81.434 11.061C81.2564 11.2685 81.0205 11.4179 80.7571 11.49C80.9901 11.526 81.198 11.6 81.38 11.712ZM79.34 11.215H79.89C80.074 11.215 80.236 11.179 80.375 11.105C80.5079 11.0384 80.6197 10.9363 80.698 10.81C80.7729 10.6872 80.8118 10.5458 80.81 10.402C80.81 10.192 80.7341 10.036 80.5821 9.93201C80.431 9.82801 80.2121 9.77701 79.9261 9.77701H79.34V11.215ZM80.82 13.365C81 13.217 81.09 13.011 81.09 12.742C81.09 12.456 80.9901 12.24 80.792 12.092C80.594 11.944 80.307 11.87 79.934 11.87H79.3421V13.586H80.004C80.368 13.586 80.64 13.513 80.82 13.366V13.365Z" fill="#8D95A3"/>
</g>
<defs>
<clipPath id="clip0_1817_602">
<rect width="120" height="41" fill="white"/>
</clipPath>
</defs>
</svg>
