<svg width="120" height="41" viewBox="0 0 120 41" fill="none" xmlns="http://www.w3.org/2000/svg">
<g clip-path="url(#clip0_1815_584)">
<path d="M116 1H4C3.07174 1 2.1815 1.36875 1.52513 2.02513C0.868749 2.6815 0.5 3.57174 0.5 4.5V36.5C0.5 37.4283 0.868749 38.3185 1.52513 38.9749C2.1815 39.6312 3.07174 40 4 40H116C116.928 40 117.818 39.6312 118.475 38.9749C119.131 38.3185 119.5 37.4283 119.5 36.5V4.5C119.5 3.57174 119.131 2.6815 118.475 2.02513C117.818 1.36875 116.928 1 116 1Z" stroke="#8D95A3"/>
<path d="M26.078 19.3C26.0892 18.4497 26.3152 17.616 26.735 16.8765C27.1547 16.1369 27.7547 15.5155 28.479 15.07C28.0189 14.4125 27.4119 13.8713 26.7061 13.4894C26.0003 13.1075 25.2151 12.8954 24.413 12.87C22.701 12.691 21.043 13.895 20.171 13.895C19.281 13.895 17.939 12.889 16.494 12.918C15.5589 12.9484 14.6476 13.2204 13.8488 13.7076C13.0501 14.1948 12.3911 14.8805 11.936 15.698C9.96501 19.11 11.435 24.125 13.323 26.882C14.267 28.233 15.371 29.742 16.815 29.688C18.229 29.63 18.757 28.787 20.463 28.787C22.153 28.787 22.648 29.688 24.122 29.654C25.639 29.63 26.594 28.298 27.506 26.934C28.184 25.972 28.706 24.908 29.053 23.784C28.1716 23.4114 27.4194 22.7874 26.8903 21.99C26.3612 21.1926 26.0787 20.257 26.078 19.3ZM23.295 11.057C24.1218 10.0642 24.529 8.78819 24.43 7.5C23.1668 7.63282 22 8.23657 21.162 9.191C20.7521 9.65727 20.4382 10.1998 20.2381 10.7874C20.0381 11.3751 19.9558 11.9965 19.996 12.616C20.6281 12.6225 21.2534 12.4854 21.8248 12.2152C22.3963 11.945 22.899 11.5486 23.295 11.056V11.057ZM42.649 26.405H38.01L36.896 29.694H34.931L39.324 17.526H41.365L45.759 29.694H43.761L42.648 26.404L42.649 26.405ZM38.491 24.887H42.167L40.355 19.549H40.305L38.491 24.887ZM55.248 25.259C55.248 28.015 53.772 29.787 51.545 29.787C50.981 29.8165 50.4201 29.6866 49.9265 29.4121C49.4329 29.1376 49.0265 28.7297 48.754 28.235H48.712V32.629H46.89V20.822H48.653V22.298H48.686C48.9711 21.8056 49.3844 21.3996 49.8818 21.1234C50.3793 20.8471 50.9423 20.7108 51.511 20.729C53.763 20.729 55.248 22.509 55.248 25.259ZM53.376 25.259C53.376 23.462 52.448 22.282 51.032 22.282C49.64 22.282 48.704 23.487 48.704 25.259C48.704 27.046 49.64 28.243 51.032 28.243C52.448 28.243 53.376 27.071 53.376 25.259ZM65.013 25.259C65.013 28.015 63.537 29.787 61.31 29.787C60.746 29.8163 60.1852 29.6863 59.6916 29.4118C59.1981 29.1374 58.7917 28.7295 58.519 28.235H58.476V32.629H56.656V20.822H58.418V22.298H58.452C58.7371 21.8058 59.1503 21.4 59.6475 21.1238C60.1447 20.8475 60.7075 20.7111 61.276 20.729C63.528 20.729 65.013 22.509 65.013 25.259ZM63.14 25.259C63.14 23.462 62.212 22.282 60.796 22.282C59.405 22.282 58.469 23.487 58.469 25.259C58.469 27.046 59.405 28.243 60.796 28.243C62.212 28.243 63.14 27.071 63.14 25.259ZM71.465 26.303C71.6 27.51 72.772 28.303 74.375 28.303C75.909 28.303 77.014 27.51 77.014 26.422C77.014 25.477 76.348 24.912 74.771 24.524L73.194 24.144C70.959 23.604 69.922 22.56 69.922 20.864C69.922 18.764 71.752 17.323 74.349 17.323C76.921 17.323 78.683 18.765 78.743 20.864H76.905C76.795 19.65 75.791 18.917 74.324 18.917C72.857 18.917 71.853 19.658 71.853 20.737C71.853 21.598 72.494 22.104 74.063 22.492L75.403 22.822C77.9 23.412 78.936 24.414 78.936 26.194C78.936 28.471 77.124 29.897 74.239 29.897C71.541 29.897 69.719 28.504 69.601 26.303H71.465ZM82.868 18.723V20.823H84.555V22.264H82.868V27.155C82.868 27.915 83.206 28.269 83.948 28.269C84.148 28.266 84.348 28.251 84.547 28.227V29.66C84.213 29.723 83.874 29.75 83.535 29.744C81.739 29.744 81.038 29.07 81.038 27.349V22.264H79.748V20.822H81.038V18.722L82.868 18.723ZM85.531 25.259C85.531 22.467 87.175 20.713 89.739 20.713C92.311 20.713 93.947 22.467 93.947 25.259C93.947 28.058 92.32 29.804 89.739 29.804C87.159 29.804 85.531 28.058 85.531 25.259ZM92.092 25.259C92.092 23.344 91.214 22.213 89.739 22.213C88.263 22.213 87.386 23.353 87.386 25.259C87.386 27.181 88.263 28.302 89.739 28.302C91.214 28.302 92.092 27.181 92.092 25.259ZM95.449 20.822H97.186V22.332H97.228C97.3455 21.8604 97.6218 21.4435 98.0104 21.1516C98.399 20.8597 98.8763 20.7105 99.362 20.729C99.572 20.729 99.781 20.751 99.986 20.797V22.501C99.7208 22.42 99.4442 22.3828 99.167 22.391C98.9026 22.3804 98.6391 22.4271 98.3944 22.5279C98.1497 22.6286 97.9298 22.7812 97.7496 22.9749C97.5694 23.1687 97.4332 23.3992 97.3505 23.6505C97.2677 23.9018 97.2402 24.1681 97.27 24.431V29.694H95.449V20.822ZM108.382 27.088C108.137 28.698 106.568 29.804 104.562 29.804C101.981 29.804 100.379 28.074 100.379 25.301C100.379 22.518 101.989 20.713 104.485 20.713C106.94 20.713 108.483 22.399 108.483 25.089V25.713H102.217V25.823C102.188 26.1496 102.229 26.4786 102.337 26.7882C102.445 27.0977 102.617 27.3808 102.843 27.6185C103.069 27.8562 103.343 28.0431 103.646 28.1668C103.95 28.2906 104.276 28.3482 104.604 28.336C105.034 28.3759 105.466 28.276 105.835 28.0512C106.204 27.8264 106.491 27.4887 106.653 27.088H108.382ZM102.226 24.44H106.661C106.678 24.1464 106.633 23.8526 106.531 23.577C106.428 23.3015 106.27 23.0501 106.065 22.8387C105.861 22.6273 105.615 22.4604 105.343 22.3486C105.071 22.2368 104.779 22.1825 104.485 22.189C104.189 22.1878 103.895 22.2452 103.621 22.3578C103.347 22.4704 103.098 22.636 102.888 22.8452C102.678 23.0543 102.511 23.3029 102.398 23.5766C102.284 23.8503 102.226 24.1437 102.226 24.44Z" fill="#212529"/>
<path d="M37.584 10.838H38.365C38.4998 10.8553 38.6366 10.8444 38.7668 10.806C38.8971 10.7675 39.0179 10.7024 39.1217 10.6148C39.2254 10.5271 39.3098 10.4188 39.3694 10.2968C39.429 10.1748 39.4626 10.0417 39.468 9.906C39.468 9.366 39.062 9.018 38.374 9.018C38.2361 8.9987 38.0957 9.00723 37.9612 9.0431C37.8266 9.07896 37.7006 9.14144 37.5906 9.22683C37.4806 9.31223 37.3888 9.4188 37.3207 9.54026C37.2526 9.66173 37.2095 9.79561 37.194 9.934H36.336C36.3508 9.68286 36.4172 9.43745 36.5309 9.21305C36.6446 8.98865 36.8033 8.79007 36.9971 8.62966C37.1909 8.46925 37.4157 8.35046 37.6574 8.28067C37.8991 8.21088 38.1526 8.19159 38.402 8.224C39.553 8.224 40.364 8.869 40.364 9.796C40.3669 10.107 40.2629 10.4096 40.0694 10.6532C39.8759 10.8967 39.6047 11.0664 39.301 11.134V11.203C39.6606 11.2191 39.9992 11.3769 40.2427 11.6418C40.4863 11.9068 40.6151 12.2574 40.601 12.617C40.5744 12.8755 40.4965 13.1261 40.3717 13.3541C40.247 13.5821 40.0781 13.7829 39.8748 13.9447C39.6715 14.1066 39.4379 14.2263 39.1878 14.2967C38.9376 14.3672 38.6759 14.387 38.418 14.355C38.1595 14.3904 37.8965 14.3734 37.6447 14.3049C37.3929 14.2365 37.1575 14.118 36.9526 13.9565C36.7476 13.795 36.5773 13.5939 36.4517 13.3651C36.3262 13.1363 36.2481 12.8846 36.222 12.625H37.094C37.146 13.184 37.66 13.545 38.418 13.545C39.176 13.545 39.671 13.14 39.671 12.568C39.671 11.988 39.205 11.632 38.391 11.632H37.584V10.838ZM41.592 12.965C41.592 12.171 42.185 11.713 43.233 11.648L44.429 11.579V11.199C44.429 10.732 44.121 10.469 43.525 10.469C43.039 10.469 42.703 10.648 42.605 10.959H41.763C41.852 10.202 42.565 9.716 43.566 9.716C44.672 9.716 45.296 10.266 45.296 11.198V14.213H44.457V13.593H44.388C44.2483 13.8155 44.052 13.9968 43.8192 14.1186C43.5864 14.2403 43.3255 14.2981 43.063 14.286C42.8779 14.3051 42.6908 14.2853 42.5139 14.2277C42.3369 14.1702 42.1739 14.0762 42.0354 13.9519C41.8969 13.8275 41.786 13.6756 41.7099 13.5058C41.6337 13.336 41.5939 13.1521 41.593 12.966L41.592 12.965ZM44.429 12.588V12.219L43.351 12.289C42.743 12.329 42.468 12.536 42.468 12.925C42.468 13.322 42.812 13.553 43.286 13.553C43.4248 13.5667 43.5649 13.5524 43.698 13.511C43.8311 13.4696 43.9546 13.4019 44.0611 13.312C44.1676 13.222 44.2549 13.1115 44.3179 12.9872C44.381 12.8628 44.4194 12.7271 44.429 12.588ZM47.608 10.534V14.214H46.737V9.8H49.642V10.533H47.607L47.608 10.534ZM54.92 12.005C54.92 13.407 54.21 14.285 53.096 14.285C52.8229 14.3038 52.55 14.2441 52.3096 14.113C52.0692 13.9819 51.8712 13.7848 51.739 13.545H51.669V15.68H50.799V9.8H51.637V10.53H51.702C51.8367 10.2816 52.0374 10.0752 52.282 9.93365C52.5266 9.79212 52.8055 9.72095 53.088 9.728C54.21 9.728 54.92 10.603 54.92 12.005ZM54.024 12.005C54.024 11.073 53.583 10.51 52.844 10.51C52.112 10.51 51.654 11.085 51.654 12.009C51.654 12.929 52.112 13.504 52.841 13.504C53.583 13.504 54.024 12.941 54.024 12.005ZM56.08 15.793V15.043C56.173 15.056 56.268 15.061 56.363 15.06C56.5486 15.0737 56.7326 15.0184 56.8799 14.9047C57.0272 14.791 57.1273 14.627 57.161 14.444L57.227 14.229L55.629 9.801H56.578L57.684 13.305H57.753L58.855 9.801H59.779L58.134 14.395C57.757 15.469 57.34 15.814 56.44 15.814C56.367 15.814 56.16 15.804 56.08 15.793ZM60.457 12.961H61.324C61.409 13.35 61.774 13.553 62.284 13.553C62.864 13.553 63.22 13.297 63.22 12.9C63.22 12.475 62.9 12.272 62.284 12.272H61.624V11.595H62.272C62.799 11.595 63.067 11.393 63.067 11.025C63.067 10.7 62.807 10.453 62.272 10.453C61.785 10.453 61.429 10.66 61.372 11.008H60.534C60.597 10.608 60.8143 10.2487 61.1393 10.0072C61.4642 9.76562 61.8709 9.66108 62.272 9.716C63.322 9.716 63.922 10.19 63.922 10.936C63.9265 11.1434 63.8598 11.346 63.733 11.5102C63.6061 11.6743 63.4269 11.79 63.225 11.838V11.908C63.4654 11.9391 63.686 12.0572 63.845 12.24C64.0041 12.4229 64.0905 12.6577 64.088 12.9C64.088 13.739 63.374 14.294 62.284 14.294C61.32 14.294 60.538 13.852 60.457 12.961ZM65.342 14.213V9.801H66.205V12.836H66.274L68.307 9.8H69.171V14.212H68.307V11.161H68.242L66.205 14.212H65.342V14.213ZM73.925 10.534H72.535V14.214H71.665V10.534H70.275V9.8H73.925V10.534ZM78.616 13.022C78.4973 13.4252 78.2407 13.7738 77.891 14.0071C77.5414 14.2403 77.1209 14.3433 76.703 14.298C76.4125 14.3055 76.1237 14.2497 75.8568 14.1345C75.5899 14.0193 75.3513 13.8474 75.1574 13.6308C74.9636 13.4142 74.8191 13.1581 74.7341 12.8801C74.6491 12.6021 74.6255 12.309 74.665 12.021C74.6265 11.732 74.6505 11.4381 74.7354 11.1591C74.8202 10.8802 74.964 10.6227 75.1569 10.4041C75.3498 10.1855 75.5874 10.0108 75.8536 9.89197C76.1198 9.77308 76.4085 9.71273 76.7 9.715C77.927 9.715 78.669 10.555 78.669 11.94V12.244H75.553V12.293C75.5395 12.4549 75.56 12.6178 75.613 12.7713C75.6661 12.9249 75.7507 13.0656 75.8613 13.1846C75.9719 13.3036 76.1061 13.3982 76.2553 13.4623C76.4046 13.5264 76.5656 13.5587 76.728 13.557C76.9364 13.5823 77.1476 13.5449 77.3346 13.4496C77.5216 13.3543 77.676 13.2054 77.778 13.022H78.616ZM75.553 11.6H77.781C77.7918 11.4521 77.7715 11.3035 77.7216 11.1638C77.6716 11.0242 77.5931 10.8965 77.491 10.7889C77.3889 10.6813 77.2654 10.5962 77.1285 10.5391C76.9916 10.4819 76.8443 10.454 76.696 10.457C76.5455 10.4553 76.396 10.4836 76.2566 10.5405C76.1171 10.5973 75.9904 10.6814 75.8839 10.7879C75.7775 10.8944 75.6933 11.0211 75.6365 11.1605C75.5797 11.3 75.5513 11.4494 75.553 11.6ZM82.308 9.8H84.298C85.161 9.8 85.667 10.238 85.667 10.923C85.6684 11.1403 85.595 11.3515 85.4592 11.5212C85.3234 11.6908 85.1334 11.8087 84.921 11.855V11.924C85.1788 11.9401 85.4205 12.0547 85.5962 12.244C85.7719 12.4332 85.8681 12.6828 85.865 12.941C85.865 13.711 85.286 14.213 84.318 14.213H82.308V9.8ZM83.171 10.47V11.612H84.034C84.561 11.612 84.812 11.409 84.812 11.036C84.812 10.692 84.593 10.469 84.132 10.469H83.172L83.171 10.47ZM83.171 12.252V13.545H84.204C84.719 13.545 84.994 13.317 84.994 12.9C84.994 12.459 84.682 12.252 84.094 12.252H83.171Z" fill="#8D95A3"/>
</g>
<defs>
<clipPath id="clip0_1815_584">
<rect width="120" height="41" fill="white"/>
</clipPath>
</defs>
</svg>
