<svg width="16" height="15" viewBox="0 0 16 15" fill="none" xmlns="http://www.w3.org/2000/svg">
<g clip-path="url(#clip0)">
<path d="M14.4052 8.48733H3.37134L8.19188 13.3079C8.57713 13.6931 8.57713 14.3253 8.19188 14.7106C7.80663 15.0958 7.18431 15.0958 6.79906 14.7106L0.289347 8.20086C-0.0959024 7.81561 -0.0959024 7.19329 0.289347 6.80804L6.78918 0.288448C7.17443 -0.0968004 7.79675 -0.0968004 8.182 0.288448C8.56725 0.673697 8.56725 1.29602 8.182 1.68127L3.37134 6.5117H14.4052C14.9485 6.5117 15.3931 6.95621 15.3931 7.49951C15.3931 8.04281 14.9485 8.48733 14.4052 8.48733Z" fill="#1D1D1D"/>
</g>
<defs>
<clipPath id="clip0">
<rect width="15.3932" height="15" fill="white" transform="matrix(-1 0 0 1 15.3931 0)"/>
</clipPath>
</defs>
</svg>
