<svg width="14" height="15" viewBox="0 0 14 15" fill="none" xmlns="http://www.w3.org/2000/svg">
<path d="M12 1.5H8.865C8.55 0.63 7.725 0 6.75 0C5.775 0 4.95 0.63 4.635 1.5H1.5C0.675 1.5 0 2.175 0 3V13.5C0 14.325 0.675 15 1.5 15H12C12.825 15 13.5 14.325 13.5 13.5V3C13.5 2.175 12.825 1.5 12 1.5ZM6.75 1.5C7.1625 1.5 7.5 1.8375 7.5 2.25C7.5 2.6625 7.1625 3 6.75 3C6.3375 3 6 2.6625 6 2.25C6 1.8375 6.3375 1.5 6.75 1.5ZM7.5 12H3.75C3.3375 12 3 11.6625 3 11.25C3 10.8375 3.3375 10.5 3.75 10.5H7.5C7.9125 10.5 8.25 10.8375 8.25 11.25C8.25 11.6625 7.9125 12 7.5 12ZM9.75 9H3.75C3.3375 9 3 8.6625 3 8.25C3 7.8375 3.3375 7.5 3.75 7.5H9.75C10.1625 7.5 10.5 7.8375 10.5 8.25C10.5 8.6625 10.1625 9 9.75 9ZM9.75 6H3.75C3.3375 6 3 5.6625 3 5.25C3 4.8375 3.3375 4.5 3.75 4.5H9.75C10.1625 4.5 10.5 4.8375 10.5 5.25C10.5 5.6625 10.1625 6 9.75 6Z" fill="#1D1D1D"/>
</svg>
