<svg width="16" height="14" viewBox="0 0 16 14" fill="none" xmlns="http://www.w3.org/2000/svg">
<path fill-rule="evenodd" clip-rule="evenodd" d="M1.33334 5.75C0.641677 5.75 0.0833435 6.30833 0.0833435 7C0.0833435 7.69167 0.641677 8.25 1.33334 8.25C2.02501 8.25 2.58334 7.69167 2.58334 7C2.58334 6.30833 2.02501 5.75 1.33334 5.75ZM1.33334 0.75C0.641677 0.75 0.0833435 1.30833 0.0833435 2C0.0833435 2.69167 0.641677 3.25 1.33334 3.25C2.02501 3.25 2.58334 2.69167 2.58334 2C2.58334 1.30833 2.02501 0.75 1.33334 0.75ZM1.33334 10.75C0.641677 10.75 0.0833435 11.3167 0.0833435 12C0.0833435 12.6833 0.65001 13.25 1.33334 13.25C2.01668 13.25 2.58334 12.6833 2.58334 12C2.58334 11.3167 2.02501 10.75 1.33334 10.75ZM3.83334 12.8333H15.5V11.1667H3.83334V12.8333ZM3.83334 7.83333H15.5V6.16667H3.83334V7.83333ZM3.83334 1.16667V2.83333H15.5V1.16667H3.83334Z" fill="black"/>
</svg>
