<svg width="121" height="40" viewBox="0 0 121 40" fill="none" xmlns="http://www.w3.org/2000/svg">
<g clip-path="url(#clip0_1816_591)">
<path d="M116.5 0.5H4.5C3.57174 0.5 2.6815 0.868749 2.02513 1.52513C1.36875 2.1815 1 3.07174 1 4V36C1 36.9283 1.36875 37.8185 2.02513 38.4749C2.6815 39.1312 3.57174 39.5 4.5 39.5H116.5C117.428 39.5 118.318 39.1312 118.975 38.4749C119.631 37.8185 120 36.9283 120 36V4C120 3.07174 119.631 2.1815 118.975 1.52513C118.318 0.868749 117.428 0.5 116.5 0.5Z" stroke="#8D95A3"/>
<path d="M60.727 20.865C58.697 20.865 57.04 22.411 57.04 24.535C57.04 26.65 58.698 28.205 60.727 28.205C62.756 28.205 64.414 26.65 64.414 24.535C64.414 22.411 62.756 20.865 60.727 20.865ZM60.727 26.763C59.613 26.763 58.654 25.847 58.654 24.535C58.654 23.214 59.613 22.307 60.727 22.307C61.841 22.307 62.799 23.214 62.799 24.535C62.799 25.847 61.832 26.763 60.727 26.763ZM52.679 20.865C50.65 20.865 48.992 22.411 48.992 24.535C48.992 26.65 50.65 28.205 52.679 28.205C54.709 28.205 56.366 26.65 56.366 24.535C56.366 22.411 54.709 20.865 52.679 20.865ZM52.679 26.763C51.565 26.763 50.607 25.847 50.607 24.535C50.607 23.214 51.566 22.307 52.679 22.307C53.793 22.307 54.752 23.214 54.752 24.535C54.752 25.847 53.793 26.763 52.679 26.763ZM43.112 21.996V23.551H46.842C46.73 24.423 46.437 25.071 45.996 25.511C45.452 26.055 44.606 26.651 43.121 26.651C40.824 26.651 39.028 24.803 39.028 22.506C39.028 20.209 40.824 18.361 43.121 18.361C44.356 18.361 45.262 18.845 45.927 19.475L47.024 18.379C46.091 17.489 44.857 16.807 43.112 16.807C39.969 16.807 37.327 19.363 37.327 22.515C37.327 25.657 39.969 28.222 43.112 28.222C44.813 28.222 46.092 27.669 47.092 26.624C48.12 25.597 48.44 24.146 48.44 22.981C48.44 22.618 48.414 22.281 48.353 22.005H43.113L43.112 21.996ZM82.235 23.206C81.933 22.385 81 20.866 79.092 20.866C77.202 20.866 75.63 22.35 75.63 24.535C75.63 26.59 77.184 28.205 79.273 28.205C79.8774 28.2094 80.4733 28.0633 81.007 27.7798C81.5407 27.4962 81.9954 27.0843 82.33 26.581L81.078 25.744C80.664 26.357 80.094 26.763 79.273 26.763C78.453 26.763 77.866 26.383 77.495 25.649L82.408 23.619L82.235 23.206ZM77.227 24.431C77.184 23.015 78.324 22.29 79.144 22.29C79.783 22.29 80.327 22.61 80.508 23.067L77.227 24.431ZM73.238 27.989H74.853V17.196H73.238V27.989ZM70.596 21.686H70.536C70.173 21.254 69.482 20.866 68.601 20.866C66.762 20.866 65.078 22.48 65.078 24.552C65.078 26.607 66.762 28.213 68.601 28.213C69.473 28.213 70.173 27.825 70.535 27.376H70.587V27.902C70.587 29.31 69.836 30.061 68.627 30.061C67.643 30.061 67.03 29.353 66.779 28.757L65.372 29.344C65.778 30.32 66.849 31.512 68.627 31.512C70.518 31.512 72.116 30.398 72.116 27.686V21.09H70.587V21.686H70.596ZM68.739 26.763C67.626 26.763 66.693 25.83 66.693 24.553C66.693 23.257 67.626 22.316 68.739 22.316C69.836 22.316 70.699 23.266 70.699 24.552C70.709 25.83 69.845 26.762 68.739 26.762V26.763ZM89.799 17.196H85.939V27.989H87.554V23.896H89.807C91.595 23.896 93.347 22.601 93.347 20.546C93.347 18.491 91.577 17.196 89.799 17.196ZM89.833 22.394H87.545V18.689H89.833C91.043 18.689 91.724 19.691 91.724 20.537C91.724 21.383 91.041 22.394 89.833 22.394ZM99.798 20.848C98.632 20.848 97.423 21.366 96.922 22.498L98.356 23.093C98.658 22.497 99.228 22.299 99.823 22.299C100.652 22.299 101.507 22.799 101.515 23.689V23.801C100.996 23.5281 100.418 23.386 99.832 23.387C98.287 23.387 96.724 24.233 96.724 25.813C96.724 27.255 97.984 28.187 99.4 28.187C100.48 28.187 101.084 27.704 101.455 27.134H101.507V27.971H103.061V23.835C103.07 21.919 101.637 20.848 99.798 20.848ZM99.598 26.763C99.072 26.763 98.338 26.495 98.338 25.847C98.338 25.018 99.254 24.699 100.048 24.699C100.756 24.699 101.092 24.854 101.515 25.062C101.455 25.5292 101.228 25.9589 100.876 26.2714C100.524 26.584 100.07 26.7583 99.599 26.762L99.598 26.763ZM108.734 21.081L106.886 25.761H106.834L104.917 21.081H103.182L106.057 27.626L104.417 31.261H106.1L110.53 21.081H108.734ZM94.228 27.99H95.843V17.196H94.228V27.99Z" fill="#212529"/>
<path d="M10.906 8.59599C10.656 8.86299 10.509 9.278 10.509 9.805V28.904C10.509 29.439 10.655 29.854 10.906 30.113L10.966 30.173L21.664 19.483V19.224L10.966 8.536L10.906 8.59599Z" fill="url(#paint0_linear_1816_591)"/>
<path d="M25.2299 23.05L21.6639 19.484V19.224L25.2299 15.659L25.3079 15.702L29.5299 18.102C30.7399 18.784 30.7399 19.907 29.5299 20.598L25.3079 22.998L25.2299 23.05Z" fill="url(#paint1_linear_1816_591)"/>
<path d="M25.308 22.998L21.664 19.354L10.906 30.113C11.303 30.536 11.959 30.588 12.702 30.165L25.308 22.998Z" fill="url(#paint2_linear_1816_591)"/>
<path d="M25.308 15.71L12.693 8.544C11.951 8.121 11.294 8.173 10.897 8.596L21.664 19.354L25.308 15.711V15.71Z" fill="url(#paint3_linear_1816_591)"/>
<path opacity="0.2" d="M25.23 22.92L12.693 30.044C11.993 30.441 11.363 30.415 10.966 30.052L10.906 30.112L10.966 30.173C11.372 30.536 11.994 30.562 12.693 30.165L25.308 22.998L25.23 22.92Z" fill="#212529"/>
<path opacity="0.12" d="M10.906 29.992C10.656 29.724 10.509 29.31 10.509 28.783V28.913C10.509 29.448 10.655 29.863 10.906 30.121L10.966 30.061L10.906 29.991V29.992ZM29.53 20.477L25.222 22.92L25.299 22.998L29.522 20.598C30.126 20.252 30.428 19.803 30.428 19.354C30.385 19.76 30.083 20.166 29.53 20.477Z" fill="#212529"/>
<path opacity="0.25" d="M12.693 8.666L29.53 18.233C30.074 18.543 30.385 18.941 30.437 19.355C30.437 18.906 30.135 18.448 29.53 18.112L12.693 8.545C11.484 7.863 10.5 8.432 10.5 9.814V9.944C10.5 8.554 11.493 7.984 12.693 8.666Z" fill="white"/>
<path d="M38.2511 14.407H37.6121V12.67H38.1221C38.5711 12.282 38.7861 11.626 38.7781 10.684V8.13H42.2401V12.671H42.8191V14.407H42.1791V13.31H38.2511V14.407ZM39.4511 10.694C39.4601 11.514 39.2961 12.17 38.9591 12.68H41.5751V8.768H39.4511V10.694ZM48.0081 12.637C47.4981 13.163 46.8681 13.422 46.1081 13.422C45.3481 13.422 44.7181 13.163 44.2091 12.637C43.6991 12.11 43.4491 11.471 43.4491 10.72C43.4491 9.969 43.6991 9.321 44.2091 8.803C44.7191 8.276 45.3491 8.017 46.1091 8.017C46.8591 8.017 47.4901 8.277 48.0091 8.803C48.2584 9.0552 48.4548 9.35471 48.5867 9.68393C48.7186 10.0131 48.7833 10.3654 48.7771 10.72C48.7771 11.48 48.5171 12.118 48.0081 12.637ZM44.7011 12.205C45.0811 12.593 45.5561 12.783 46.1091 12.783C46.6611 12.783 47.1361 12.593 47.5161 12.205C47.8961 11.816 48.0941 11.325 48.0941 10.72C48.0941 10.115 47.9041 9.623 47.5161 9.235C47.3342 9.04656 47.1153 8.89783 46.8732 8.79818C46.631 8.69853 46.3709 8.65012 46.1091 8.656C45.5561 8.656 45.0811 8.846 44.7011 9.235C44.3211 9.623 44.1231 10.115 44.1231 10.72C44.1231 11.324 44.3211 11.816 44.7011 12.205ZM52.1271 13.422C51.3671 13.422 50.7271 13.163 50.2101 12.645C49.6921 12.127 49.4331 11.488 49.4331 10.711C49.4331 9.934 49.6921 9.295 50.2101 8.777C50.7281 8.259 51.3671 8 52.1261 8C52.9041 8 53.5431 8.285 54.0261 8.846L53.5601 9.296C53.2061 8.855 52.7301 8.639 52.1181 8.639C51.8532 8.63332 51.5899 8.68084 51.3438 8.77875C51.0976 8.87666 50.8736 9.02296 50.6851 9.209C50.2961 9.589 50.1061 10.089 50.1061 10.703C50.1061 11.316 50.2961 11.816 50.6851 12.196C51.0731 12.576 51.5481 12.766 52.1181 12.766C52.7401 12.766 53.2661 12.516 53.7071 12.015L54.1731 12.481C53.9401 12.766 53.6381 12.991 53.2831 13.155C52.9291 13.345 52.5421 13.422 52.1271 13.422ZM56.8761 13.31H56.2111V8.768H54.7611V8.13H58.3171V8.768H56.8671V13.31H56.8761ZM62.8941 8.13L60.9341 12.498C60.6661 13.112 60.2601 13.422 59.7251 13.422C59.5467 13.4187 59.3708 13.3807 59.2071 13.31L59.3801 12.697C59.4852 12.7572 59.6039 12.7899 59.7251 12.792C59.8801 12.792 60.0011 12.766 60.0881 12.706C60.1741 12.646 60.2521 12.533 60.3211 12.378L60.5111 11.963L58.7661 8.13H59.5521L60.8301 11.1H60.8561L62.1081 8.13H62.8941ZM63.6451 13.31V8.13H67.3921V13.31H66.7281V8.768H64.3101V13.31H63.6451ZM68.5751 13.31V8.13H69.2401V10.349H71.8301V8.129H72.4951V13.31H71.8301V10.97H69.2401V13.31H68.5751ZM77.9261 12.637C77.4161 13.163 76.7861 13.422 76.0261 13.422C75.2671 13.422 74.6361 13.163 74.1271 12.637C73.6171 12.11 73.3671 11.471 73.3671 10.72C73.3671 9.969 73.6171 9.321 74.1271 8.803C74.6371 8.276 75.2671 8.017 76.0271 8.017C76.7781 8.017 77.4081 8.277 77.9271 8.803C78.1764 9.0552 78.3728 9.35471 78.5047 9.68393C78.6366 10.0131 78.7013 10.3654 78.6951 10.72C78.6861 11.48 78.4351 12.118 77.9261 12.637ZM74.6191 12.205C74.9991 12.593 75.4741 12.783 76.0271 12.783C76.5791 12.783 77.0541 12.593 77.4341 12.205C77.8141 11.816 78.0131 11.325 78.0131 10.72C78.0131 10.115 77.8231 9.623 77.4341 9.235C77.2522 9.04656 77.0333 8.89783 76.7912 8.79818C76.549 8.69853 76.2889 8.65012 76.0271 8.656C75.4741 8.656 74.9991 8.846 74.6191 9.235C74.2391 9.623 74.0411 10.115 74.0411 10.72C74.0411 11.324 74.2311 11.816 74.6191 12.205ZM81.4061 13.31V8.13H83.2801C83.6861 8.13 84.0401 8.268 84.3331 8.527C84.6271 8.794 84.7821 9.131 84.7821 9.537C84.7821 9.787 84.7221 10.003 84.5921 10.184C84.4621 10.374 84.2991 10.513 84.0821 10.608V10.633C84.3421 10.72 84.5491 10.867 84.7131 11.083C84.8771 11.298 84.9631 11.54 84.9631 11.825C84.9631 12.248 84.8081 12.602 84.4971 12.879C84.1871 13.155 83.8151 13.302 83.3921 13.302H81.4061V13.31ZM82.0711 10.349H83.2801C83.5301 10.349 83.7291 10.262 83.8841 10.099C83.9558 10.0276 84.0126 9.94264 84.0513 9.84908C84.0899 9.75552 84.1095 9.65522 84.1091 9.554C84.1094 9.45295 84.0897 9.35284 84.0511 9.25946C84.0124 9.16608 83.9557 9.08129 83.8841 9.01C83.812 8.92814 83.7227 8.86326 83.6226 8.82004C83.5225 8.77681 83.414 8.75631 83.3051 8.76H82.0711V10.349ZM82.0711 12.671H83.4091C83.6691 12.671 83.8751 12.585 84.0311 12.404C84.1861 12.222 84.2731 12.032 84.2731 11.816C84.2735 11.7076 84.2515 11.6003 84.2085 11.5009C84.1655 11.4014 84.1023 11.3119 84.0231 11.238C83.94 11.1502 83.8394 11.081 83.7277 11.0348C83.616 10.9886 83.4959 10.9665 83.3751 10.97H82.0621V12.671H82.0711Z" fill="#8D95A3" stroke="#8D95A3" stroke-width="0.2" stroke-miterlimit="10"/>
</g>
<defs>
<linearGradient id="paint0_linear_1816_591" x1="20.714" y1="9.606" x2="6.22403" y2="24.096" gradientUnits="userSpaceOnUse">
<stop stop-color="#00A0FF"/>
<stop offset="0.007" stop-color="#00A1FF"/>
<stop offset="0.26" stop-color="#00BEFF"/>
<stop offset="0.512" stop-color="#00D2FF"/>
<stop offset="0.76" stop-color="#00DFFF"/>
<stop offset="1" stop-color="#00E3FF"/>
</linearGradient>
<linearGradient id="paint1_linear_1816_591" x1="31.1059" y1="19.355" x2="10.2129" y2="19.355" gradientUnits="userSpaceOnUse">
<stop stop-color="#FFE000"/>
<stop offset="0.409" stop-color="#FFBD00"/>
<stop offset="0.775" stop-color="#FFA500"/>
<stop offset="1" stop-color="#FF9C00"/>
</linearGradient>
<linearGradient id="paint2_linear_1816_591" x1="23.328" y1="21.337" x2="3.67801" y2="40.987" gradientUnits="userSpaceOnUse">
<stop stop-color="#FF3A44"/>
<stop offset="1" stop-color="#C31162"/>
</linearGradient>
<linearGradient id="paint3_linear_1816_591" x1="8.19197" y1="2.238" x2="16.967" y2="11.012" gradientUnits="userSpaceOnUse">
<stop stop-color="#32A071"/>
<stop offset="0.069" stop-color="#2DA771"/>
<stop offset="0.476" stop-color="#15CF74"/>
<stop offset="0.801" stop-color="#06E775"/>
<stop offset="1" stop-color="#00F076"/>
</linearGradient>
<clipPath id="clip0_1816_591">
<rect width="121" height="40" fill="white"/>
</clipPath>
</defs>
</svg>
