<svg width="90" height="25" viewBox="0 0 90 25" fill="none" xmlns="http://www.w3.org/2000/svg">
<path d="M6.31658 0V9.09093H15.4444V0H21.7975V24.353H15.4444V14.495H6.31658V24.353H0V0H6.31658Z" fill="#0F2C6F"/>
<path d="M54.9124 24.353H44.7622V0H54.1819C56.5919 0 58.3682 0.632784 59.5126 1.89835C60.5102 2.99413 61.0092 4.51506 61.0092 6.46251C61.0092 7.53396 60.7777 8.53155 60.3156 9.45663C59.8288 10.3574 59.1712 10.9902 58.3443 11.355C59.7072 11.5014 60.8147 11.9882 61.6668 12.8156C62.7621 13.8627 63.3093 15.3476 63.3093 17.2698C63.3093 19.2659 62.7126 20.8603 61.5204 22.0529C60.036 23.586 57.8336 24.353 54.9124 24.353ZM51.0792 4.856V9.60211H52.2475C53.3672 9.60211 54.1702 9.34629 54.6575 8.83511C55.0466 8.44643 55.2417 7.91048 55.2417 7.2286C55.2417 6.5715 55.0466 6.02384 54.6575 5.58562C54.1707 5.09921 53.3672 4.85555 52.2475 4.85555H51.0792V4.856ZM51.0792 14.3126V19.424H52.5029C54.5476 19.424 55.8492 19.0957 56.4095 18.4386C56.7504 18.0494 56.9207 17.5256 56.9207 16.8685C56.9207 16.1146 56.7135 15.5305 56.3 15.1161C55.7645 14.5811 54.4616 14.3131 52.3935 14.3131H51.0792V14.3126Z" fill="#0F2C6F"/>
<path d="M83.2456 24.353L81.7486 20.264H72.913L71.27 24.353H64.5886L73.9349 0H80.8356L90 24.353H83.2456ZM74.6654 15.4444H80.0691L77.3308 7.55783L74.6654 15.4444Z" fill="#0F2C6F"/>
<path d="M27.8819 5.34601H41.7194L39.7737 0H25.9358L27.8819 5.34601Z" fill="#0F2C6F"/>
<path d="M27.8819 14.8494H41.7194L39.7737 9.50342H25.9358L27.8819 14.8494Z" fill="#0F2C6F"/>
<path d="M27.8819 24.3529H41.7194L39.7737 19.0064H25.9358L27.8819 24.3529Z" fill="#0F2C6F"/>
</svg>
