<svg width="15" height="14" viewBox="0 0 15 14" fill="none" xmlns="http://www.w3.org/2000/svg">
<path d="M14.7482 6.31212L12.4749 4.0388V1.41272C12.4749 0.937894 12.0901 0.553082 11.6146 0.553082C11.1402 0.553082 10.7554 0.937894 10.7554 1.41272V2.3193L9.0627 0.626569C8.22583 -0.20985 6.77078 -0.208366 5.93582 0.628083L0.251661 6.31212C-0.0838871 6.64833 -0.0838871 7.19235 0.251661 7.52805C0.587361 7.86417 1.13244 7.86417 1.46802 7.52805L7.15163 1.84386C7.33678 1.65968 7.66313 1.65968 7.84731 1.84332L13.5319 7.52805C13.7005 7.69613 13.9202 7.77973 14.1399 7.77973C14.3601 7.77973 14.5802 7.69604 14.7483 7.52805C15.0839 7.19238 15.0839 6.64836 14.7482 6.31212Z" fill="black"/>
<path d="M7.79862 3.47569C7.63348 3.31064 7.36608 3.31064 7.20143 3.47569L2.20163 8.474C2.12269 8.55291 2.07794 8.66064 2.07794 8.77306V12.4186C2.07794 13.2741 2.77157 13.9677 3.627 13.9677H6.1024V10.1341H8.8971V13.9677H11.3725C12.2279 13.9677 12.9216 13.2741 12.9216 12.4187V8.77306C12.9216 8.66064 12.8772 8.55291 12.7979 8.474L7.79862 3.47569Z" fill="black"/>
</svg>
