<svg width="60" height="56" viewBox="0 0 60 56" fill="none" xmlns="http://www.w3.org/2000/svg">
<path d="M58.6436 25.099L49.6042 16.0595V5.61744C49.6042 3.72937 48.0742 2.19923 46.1833 2.19923C44.2968 2.19923 42.7668 3.72937 42.7668 5.61744V9.22227L36.0362 2.49144C32.7085 -0.834429 26.9228 -0.82853 23.6027 2.49746L1.00069 25.099C-0.333562 26.4359 -0.333562 28.5991 1.00069 29.9339C2.33554 31.2705 4.50294 31.2705 5.8373 29.9339L28.4372 7.33179C29.1734 6.59941 30.471 6.59941 31.2034 7.32962L53.8071 29.9339C54.4774 30.6023 55.3512 30.9347 56.2248 30.9347C57.1003 30.9347 57.9755 30.6019 58.6437 29.9339C59.9785 28.5992 59.9785 26.436 58.6436 25.099Z" fill="#003E8E"/>
<path d="M31.0097 13.8204C30.353 13.1641 29.2898 13.1641 28.6351 13.8204L8.75428 33.6953C8.4404 34.0091 8.26245 34.4374 8.26245 34.8845V49.3805C8.26245 52.7821 11.0205 55.54 14.422 55.54H24.265V40.2965H35.3776V55.54H45.2207C48.6221 55.54 51.3801 52.7821 51.3801 49.3806V34.8845C51.3801 34.4374 51.2037 34.0091 50.8883 33.6953L31.0097 13.8204Z" fill="#003E8E"/>
</svg>
