<svg width="35" height="26" viewBox="0 0 35 26" fill="none" xmlns="http://www.w3.org/2000/svg">
<rect width="35" height="26" rx="3" fill="#F8F9FA"/>
<g clip-path="url(#clip0)">
<path d="M14 19C17.3137 19 20 16.3137 20 13C20 9.68629 17.3137 7 14 7C10.6863 7 8 9.68629 8 13C8 16.3137 10.6863 19 14 19Z" fill="#EE0005"/>
<path d="M21.4546 19C24.7683 19 27.4546 16.3137 27.4546 13C27.4546 9.68629 24.7683 7 21.4546 7C18.1409 7 15.4546 9.68629 15.4546 13C15.4546 16.3137 18.1409 19 21.4546 19Z" fill="#F9A000"/>
<path d="M15.4546 12.9999C15.4546 14.905 16.3427 16.6026 17.7273 17.7016C19.1118 16.6025 20 14.905 20 12.9999C20 11.0948 19.1119 9.39722 17.7273 8.29816C16.3427 9.39731 15.4546 11.0948 15.4546 12.9999Z" fill="#FF6300"/>
</g>
<defs>
<clipPath id="clip0">
<rect width="19.4545" height="12" fill="white" transform="translate(8 7)"/>
</clipPath>
</defs>
</svg>
