<svg width="15" height="15" viewBox="0 0 15 15" fill="none" xmlns="http://www.w3.org/2000/svg">
<path d="M5.64617 3.77403L3.22117 1.34903C2.53359 1.83027 1.93101 2.42271 1.43817 3.10203L3.84267 5.50653C4.25357 4.75899 4.88274 4.15459 5.64617 3.77403Z" fill="black"/>
<path d="M11.1574 5.50645L13.5619 3.10195C13.069 2.42264 12.4665 1.83019 11.7789 1.34895L9.35388 3.77395C10.1173 4.15452 10.7465 4.75892 11.1574 5.50645Z" fill="black"/>
<path d="M14.0256 3.8167L11.4996 6.34265C11.7068 7.04223 11.7215 7.78469 11.5423 8.49194L14.1029 11.0525C14.7045 9.93877 15.0131 8.69036 14.9996 7.4246C14.986 6.15884 14.6509 4.9173 14.0256 3.8167Z" fill="black"/>
<path d="M9.49359 11.1574L11.8981 13.5619C12.5774 13.0691 13.1698 12.4665 13.6511 11.7789L11.2261 9.35394C10.8455 10.1174 10.2411 10.7465 9.49359 11.1574Z" fill="black"/>
<path d="M3.33332 7.50003C3.33404 7.10826 3.39026 6.71856 3.50032 6.34257L0.974364 3.8167C0.349086 4.9173 0.0139389 6.15883 0.000425502 7.42458C-0.0130879 8.69033 0.295476 9.93873 0.897114 11.0524L3.45761 8.49169C3.37637 8.16735 3.33463 7.83438 3.33332 7.50003Z" fill="black"/>
<path d="M7.49998 11.6667C7.10821 11.666 6.71852 11.6098 6.34252 11.4997L3.81665 14.0257C4.93921 14.6642 6.2085 15 7.49998 15C8.79146 15 10.0608 14.6642 11.1833 14.0257L8.65735 11.4997C8.28139 11.6098 7.89172 11.666 7.49998 11.6667Z" fill="black"/>
<path d="M7.50001 3.33337C7.83436 3.33468 8.16734 3.37641 8.49167 3.45766L11.0522 0.897118C9.96075 0.308283 8.74003 0 7.49986 0C6.25969 0 5.03897 0.308283 3.94751 0.897118L6.50834 3.45766C6.83268 3.37641 7.16565 3.33468 7.50001 3.33337Z" fill="black"/>
<path d="M3.774 9.35386L1.349 11.7789C1.83024 12.4664 2.42268 13.069 3.102 13.5619L5.5065 11.1574C4.75896 10.7465 4.15456 10.1173 3.774 9.35386Z" fill="black"/>
</svg>
