<svg width="35" height="26" viewBox="0 0 35 26" fill="none" xmlns="http://www.w3.org/2000/svg">
<rect width="35" height="26" rx="3" fill="#F8F9FA"/>
<g clip-path="url(#clip0)">
<path d="M14.0074 8.16641L12.3564 17.8547H14.9969L16.6491 8.16641H14.0074Z" fill="#1A1F71"/>
<path d="M10.1426 8.17718L7.55652 14.7843L7.28079 13.7867C6.77077 12.5847 5.32289 10.8584 3.62305 9.77041L5.98772 17.8499L8.78162 17.8451L12.9399 8.17517L10.1426 8.17718Z" fill="#1A1F71"/>
<path d="M6.27812 8.87054C6.12463 8.28039 5.67981 8.10449 5.1277 8.08344H1.03395L1 8.27633C4.18573 9.04918 6.29371 10.9113 7.16844 13.1504L6.27812 8.87054Z" fill="#1A1F71"/>
<path d="M22.0004 10.0238C22.8642 10.0102 23.4904 10.199 23.9766 10.3946L24.215 10.5066L24.5722 8.40678C24.0493 8.21053 23.2296 8 22.2068 8C19.5977 8 17.7586 9.31408 17.7443 11.1973C17.7273 12.5888 19.0543 13.3657 20.0567 13.8296C21.0856 14.3049 21.4306 14.6071 21.4258 15.0316C21.4177 15.6802 20.6055 15.9776 19.8469 15.9776C18.7895 15.9776 18.2279 15.8316 17.3606 15.4703L17.0204 15.3154L16.6489 17.4839C17.2669 17.7548 18.4072 17.9878 19.5909 18C22.3664 18 24.1702 16.7015 24.1892 14.6893C24.2007 13.5884 23.4965 12.7484 21.9705 12.0591C21.0469 11.6095 20.4819 11.3107 20.4873 10.8571C20.4873 10.4543 20.9667 10.0238 22.0004 10.0238Z" fill="#1A1F71"/>
<path d="M31.3484 8.17715H29.3083C28.6747 8.17715 28.2034 8.34965 27.9249 8.98122L24.0044 17.86H26.7772C26.7772 17.86 27.2295 16.6661 27.3321 16.4046C27.6357 16.4046 30.3297 16.4087 30.7134 16.4087C30.7922 16.7469 31.0353 17.86 31.0353 17.86H33.4849L31.3484 8.17715ZM28.092 14.4217C28.3093 13.8655 29.144 11.714 29.144 11.714C29.1297 11.7405 29.3592 11.1537 29.4957 10.7891L29.6737 11.6244C29.6737 11.6244 30.1796 13.9375 30.2856 14.4217H28.092Z" fill="#1A1F71"/>
</g>
<defs>
<clipPath id="clip0">
<rect width="32.4849" height="10" fill="white" transform="translate(1 8)"/>
</clipPath>
</defs>
</svg>
