<svg width="49" height="15" viewBox="0 0 49 15" fill="none" xmlns="http://www.w3.org/2000/svg">
<g clip-path="url(#clip0)">
<path d="M19.2824 0.249619L16.835 14.7821H20.7493L23.1987 0.249619H19.2824Z" fill="#1A1F71"/>
<path d="M13.5537 0.265808L9.71992 10.1765L9.31116 8.6801C8.55508 6.87704 6.40863 4.28757 3.88867 2.65564L7.39423 14.7748L11.5361 14.7677L17.7006 0.262787L13.5537 0.265808Z" fill="#1A1F71"/>
<path d="M7.82465 1.30586C7.5971 0.420633 6.93768 0.156774 6.11918 0.125198H0.050325L0 0.414542C4.72275 1.57382 7.84776 4.36702 9.14451 7.7256L7.82465 1.30586Z" fill="#1A1F71"/>
<path d="M31.1326 3.03567C32.4132 3.0153 33.3414 3.2985 34.0622 3.59184L34.4156 3.7599L34.9452 0.610165C34.17 0.315802 32.9548 0 31.4386 0C27.5706 0 24.8442 1.97112 24.8231 4.79595C24.7979 6.88323 26.7652 8.0486 28.2512 8.74433C29.7764 9.4574 30.2879 9.91072 30.2808 10.5474C30.2688 11.5202 29.0647 11.9664 27.9401 11.9664C26.3725 11.9664 25.5399 11.7474 24.2543 11.2055L23.7499 10.9732L23.1992 14.2258C24.1154 14.6323 25.8058 14.9817 27.5605 15C31.6752 15 34.3492 13.0523 34.3774 10.0339C34.3945 8.38267 33.3505 7.12258 31.0883 6.08864C29.719 5.41425 28.8814 4.96605 28.8895 4.28557C28.8895 3.6815 29.6002 3.03567 31.1326 3.03567Z" fill="#1A1F71"/>
<path d="M44.9908 0.265694H41.9664C41.0271 0.265694 40.3284 0.524436 39.9156 1.47179L34.1035 14.79H38.2142C38.2142 14.79 38.8847 12.9991 39.0367 12.6069C39.4867 12.6069 43.4806 12.613 44.0494 12.613C44.1662 13.1203 44.5266 14.7899 44.5266 14.7899H48.1581L44.9908 0.265694ZM40.1633 9.63247C40.4854 8.79815 41.7228 5.57099 41.7228 5.57099C41.7016 5.6107 42.0419 4.73059 42.2443 4.18357L42.508 5.43655C42.508 5.43655 43.2581 8.90618 43.4151 9.63247H40.1633Z" fill="#1A1F71"/>
</g>
<defs>
<clipPath id="clip0">
<rect width="48.1579" height="15" fill="white"/>
</clipPath>
</defs>
</svg>
