<svg width="20" height="18" viewBox="0 0 20 18" fill="none" xmlns="http://www.w3.org/2000/svg">
<path d="M2.001 17.007H17.061C18.601 17.007 19.561 15.337 18.791 14.007L11.261 0.997012C10.491 -0.332988 8.571 -0.332988 7.801 0.997012L0.271005 14.007C-0.498995 15.337 0.461005 17.007 2.001 17.007ZM9.531 10.007C8.981 10.007 8.531 9.55701 8.531 9.00701V7.00701C8.531 6.45701 8.981 6.00701 9.531 6.00701C10.081 6.00701 10.531 6.45701 10.531 7.00701V9.00701C10.531 9.55701 10.081 10.007 9.531 10.007ZM10.531 14.007H8.531V12.007H10.531V14.007Z" fill="white"/>
</svg>
